<svg viewBox="0 0 400 300" xmlns="http://www.w3.org/2000/svg">
  <!-- Cat -->
  <g transform="translate(80, 60)">
    <!-- Body -->
    <ellipse cx="0" cy="30" rx="35" ry="40" fill="#ff8c42" stroke="#e67a2e" stroke-width="2"/>
    
    <!-- Head -->
    <circle cx="0" cy="0" r="25" fill="#ff8c42" stroke="#e67a2e" stroke-width="2"/>
    
    <!-- Ears -->
    <polygon points="-20,-20 -15,-5 -25,-10" fill="#ff8c42" stroke="#e67a2e" stroke-width="2"/>
    <polygon points="20,-20 15,-5 25,-10" fill="#ff8c42" stroke="#e67a2e" stroke-width="2"/>
    <polygon points="-18,-16 -16,-8 -22,-11" fill="#ffb380"/>
    <polygon points="18,-16 16,-8 22,-11" fill="#ffb380"/>
    
    <!-- Eyes -->
    <ellipse cx="-8" cy="-3" rx="4" ry="6" fill="#2d5016"/>
    <ellipse cx="8" cy="-3" rx="4" ry="6" fill="#2d5016"/>
    <ellipse cx="-7" cy="-4" rx="2" ry="3" fill="#90ee90"/>
    <ellipse cx="9" cy="-4" rx="2" ry="3" fill="#90ee90"/>
    
    <!-- Nose -->
    <polygon points="0,3 -3,8 3,8" fill="#ffb380"/>
    
    <!-- Mouth -->
    <path d="M 0,8 Q -5,12 -8,10" stroke="#e67a2e" stroke-width="1.5" fill="none"/>
    <path d="M 0,8 Q 5,12 8,10" stroke="#e67a2e" stroke-width="1.5" fill="none"/>
    
    <!-- Whiskers -->
    <line x1="-25" y1="2" x2="-35" y2="0" stroke="#333" stroke-width="1"/>
    <line x1="-25" y1="5" x2="-35" y2="7" stroke="#333" stroke-width="1"/>
    <line x1="25" y1="2" x2="35" y2="0" stroke="#333" stroke-width="1"/>
    <line x1="25" y1="5" x2="35" y2="7" stroke="#333" stroke-width="1"/>
    
    <!-- Tail -->
    <path d="M -25,50 Q -45,40 -40,20" stroke="#e67a2e" stroke-width="8" fill="none" stroke-linecap="round"/>
  </g>
  
  <!-- Green Checkmark under cat -->
  <g transform="translate(80, 180)">
    <circle cx="0" cy="0" r="25" fill="#4CAF50"/>
    <path d="M -10,0 L -5,8 L 12,-10" stroke="white" stroke-width="4" fill="none" stroke-linecap="round" stroke-linejoin="round"/>
  </g>
  
  <!-- Dog -->
  <g transform="translate(280, 60)">
    <!-- Body -->
    <ellipse cx="0" cy="35" rx="38" ry="35" fill="#8b6f47" stroke="#6b5437" stroke-width="2"/>
    
    <!-- Head -->
    <ellipse cx="0" cy="0" rx="28" ry="25" fill="#8b6f47" stroke="#6b5437" stroke-width="2"/>
    
    <!-- Snout -->
    <ellipse cx="0" cy="12" rx="18" ry="15" fill="#a0826d" stroke="#6b5437" stroke-width="2"/>
    
    <!-- Ears -->
    <ellipse cx="-22" cy="-5" rx="12" ry="20" fill="#8b6f47" stroke="#6b5437" stroke-width="2"/>
    <ellipse cx="22" cy="-5" rx="12" ry="20" fill="#8b6f47" stroke="#6b5437" stroke-width="2"/>
    
    <!-- Eyes -->
    <circle cx="-10" cy="-5" r="5" fill="#2d2d2d"/>
    <circle cx="10" cy="-5" r="5" fill="#2d2d2d"/>
    <circle cx="-9" cy="-6" r="2" fill="white"/>
    <circle cx="11" cy="-6" r="2" fill="white"/>
    
    <!-- Nose -->
    <ellipse cx="0" cy="15" rx="6" ry="5" fill="#2d2d2d"/>
    
    <!-- Mouth -->
    <path d="M 0,20 Q -8,25 -12,23" stroke="#6b5437" stroke-width="1.5" fill="none"/>
    <path d="M 0,20 Q 8,25 12,23" stroke="#6b5437" stroke-width="1.5" fill="none"/>
    
    <!-- Tail -->
    <path d="M 30,50 Q 50,45 55,30" stroke="#6b5437" stroke-width="8" fill="none" stroke-linecap="round"/>
  </g>
  
  <!-- Red Cross under dog -->
  <g transform="translate(280, 180)">
    <circle cx="0" cy="0" r="25" fill="#f44336"/>
    <line x1="-10" y1="-10" x2="10" y2="10" stroke="white" stroke-width="4" stroke-linecap="round"/>
    <line x1="10" y1="-10" x2="-10" y2="10" stroke="white" stroke-width="4" stroke-linecap="round"/>
  </g>
</svg>