<svg viewBox="0 0 700 120" xmlns="http://www.w3.org/2000/svg">
  <defs>
    <linearGradient id="diceGradient" x1="0%" y1="0%" x2="100%" y2="100%">
      <stop offset="0%" style="stop-color:#ffffff;stop-opacity:1" />
      <stop offset="100%" style="stop-color:#e0e0e0;stop-opacity:1" />
    </linearGradient>
    
    <filter id="diceShadow">
      <feGaussianBlur in="SourceAlpha" stdDeviation="2"/>
      <feOffset dx="2" dy="2" result="offsetblur"/>
      <feComponentTransfer>
        <feFuncA type="linear" slope="0.3"/>
      </feComponentTransfer>
      <feMerge>
        <feMergeNode/>
        <feMergeNode in="SourceGraphic"/>
      </feMerge>
    </filter>
  </defs>
  
  <!-- Die 1 -->
  <g transform="translate(10, 10)">
    <rect width="100" height="100" rx="15" fill="url(#diceGradient)" stroke="#333" stroke-width="2" filter="url(#diceShadow)"/>
    <circle cx="50" cy="50" r="8" fill="#333"/>
  </g>
  
  <!-- Die 2 -->
  <g transform="translate(125, 10)">
    <rect width="100" height="100" rx="15" fill="url(#diceGradient)" stroke="#333" stroke-width="2" filter="url(#diceShadow)"/>
    <circle cx="30" cy="30" r="8" fill="#333"/>
    <circle cx="70" cy="70" r="8" fill="#333"/>
  </g>
  
  <!-- Die 3 -->
  <g transform="translate(240, 10)">
    <rect width="100" height="100" rx="15" fill="url(#diceGradient)" stroke="#333" stroke-width="2" filter="url(#diceShadow)"/>
    <circle cx="30" cy="30" r="8" fill="#333"/>
    <circle cx="50" cy="50" r="8" fill="#333"/>
    <circle cx="70" cy="70" r="8" fill="#333"/>
  </g>
  
  <!-- Die 4 -->
  <g transform="translate(355, 10)">
    <rect width="100" height="100" rx="15" fill="url(#diceGradient)" stroke="#333" stroke-width="2" filter="url(#diceShadow)"/>
    <circle cx="30" cy="30" r="8" fill="#333"/>
    <circle cx="70" cy="30" r="8" fill="#333"/>
    <circle cx="30" cy="70" r="8" fill="#333"/>
    <circle cx="70" cy="70" r="8" fill="#333"/>
  </g>
  
  <!-- Die 5 -->
  <g transform="translate(470, 10)">
    <rect width="100" height="100" rx="15" fill="url(#diceGradient)" stroke="#333" stroke-width="2" filter="url(#diceShadow)"/>
    <circle cx="30" cy="30" r="8" fill="#333"/>
    <circle cx="70" cy="30" r="8" fill="#333"/>
    <circle cx="50" cy="50" r="8" fill="#333"/>
    <circle cx="30" cy="70" r="8" fill="#333"/>
    <circle cx="70" cy="70" r="8" fill="#333"/>
  </g>
  
  <!-- Die 6 -->
  <g transform="translate(585, 10)">
    <rect width="100" height="100" rx="15" fill="url(#diceGradient)" stroke="#333" stroke-width="2" filter="url(#diceShadow)"/>
    <circle cx="30" cy="25" r="8" fill="#333"/>
    <circle cx="70" cy="25" r="8" fill="#333"/>
    <circle cx="30" cy="50" r="8" fill="#333"/>
    <circle cx="70" cy="50" r="8" fill="#333"/>
    <circle cx="30" cy="75" r="8" fill="#333"/>
    <circle cx="70" cy="75" r="8" fill="#333"/>
  </g>
</svg>